<?xml version="1.0" standalone="no"?>
<!DOCTYPE svg PUBLIC "-//W3C//DTD SVG 20010904//EN"
 "http://www.w3.org/TR/2001/REC-SVG-20010904/DTD/svg10.dtd">
<svg version="1.0" xmlns="http://www.w3.org/2000/svg"
 width="1039.000000pt" height="658.000000pt" viewBox="0 0 1039.000000 658.000000"
 preserveAspectRatio="xMidYMid meet">

<g transform="translate(0.000000,658.000000) scale(0.100000,-0.100000)"
fill="#000000" stroke="none">
<path d="M120 6080 l0 -430 640 0 c505 0 640 -3 640 -12 0 -7 -9 -47 -20 -88
-25 -94 -25 -100 0 -100 20 0 20 -7 20 -330 l0 -330 1065 0 1065 0 0 -420 0
-420 -640 0 -640 0 0 -645 0 -645 640 0 640 0 0 -420 0 -420 -1065 0 -1065 0
0 -330 c0 -323 0 -330 -20 -330 -25 0 -25 -6 0 -100 11 -41 20 -81 20 -88 0
-10 -46 -13 -212 -12 -117 0 -405 1 -640 0 l-428 0 0 -430 0 -430 1658 0 1657
0 108 215 c59 118 107 217 107 220 0 3 -70 5 -155 5 -85 0 -155 2 -155 5 0 3
45 95 100 205 55 110 100 202 100 205 0 3 -479 5 -1065 5 -845 0 -1065 3
-1065 13 0 6 9 46 20 87 25 94 25 100 0 100 -20 0 -20 7 -20 325 l0 325 1065
0 1065 0 0 425 0 425 645 0 645 0 0 645 0 645 -642 2 -643 3 -3 423 -2 422
-1065 0 -1065 0 0 325 c0 318 0 325 20 325 25 0 25 6 0 100 -11 41 -20 81 -20
88 0 10 130 12 638 12 350 0 806 0 1012 0 l375 0 108 215 c59 118 107 217 107
220 0 3 -70 5 -155 5 -85 0 -155 2 -155 5 0 3 45 95 100 205 55 110 100 202
100 205 0 3 -769 5 -1710 5 l-1710 0 0 -430z m850 0 l0 -420 -420 0 -420 0 0
420 0 420 420 0 420 0 0 -420z m850 0 l0 -420 -415 0 -415 0 0 420 0 420 415
0 415 0 0 -420z m860 0 l0 -420 -420 0 -420 0 0 420 0 420 420 0 420 0 0 -420z
m745 210 c-58 -115 -105 -212 -105 -215 0 -3 70 -5 155 -5 85 0 155 -2 155 -5
0 -3 -45 -95 -100 -205 l-100 -200 -370 0 -370 0 0 420 0 420 420 0 420 0
-105 -210z m1385 -2985 l0 -635 -1275 0 -1275 0 0 635 0 635 1275 0 1275 0 0
-635z m-3840 -2775 l0 -420 -420 0 -420 0 0 420 0 420 420 0 420 0 0 -420z
m850 0 l0 -420 -415 0 -415 0 0 420 0 420 415 0 415 0 0 -420z m860 0 l0 -420
-420 0 -420 0 0 420 0 420 420 0 420 0 0 -420z m745 210 l-105 -210 155 0 c98
0 155 -4 155 -10 0 -6 -45 -100 -100 -210 l-100 -200 -370 0 -370 0 0 420 0
420 420 0 420 0 -105 -210z"/>
<path d="M625 6240 c-20 -39 -31 -50 -49 -50 -29 0 -81 -41 -101 -81 -20 -37
-19 -98 1 -120 14 -16 13 -21 -11 -68 -14 -28 -23 -51 -20 -51 2 0 16 22 29
48 21 42 29 49 55 49 37 0 78 20 86 41 5 14 4 14 -12 0 -25 -22 -55 -29 -73
-18 -12 8 -8 23 30 100 44 89 62 111 57 68 -3 -27 30 -37 40 -12 4 11 -1 23
-17 36 l-23 19 21 45 c12 24 20 44 17 44 -3 0 -16 -22 -30 -50z m-35 -65 c0
-3 -19 -42 -42 -88 -38 -74 -43 -79 -46 -53 -5 38 24 112 51 131 22 15 37 19
37 10z"/>
<path d="M1253 6188 c-18 -5 -33 -11 -33 -14 0 -3 9 -3 19 1 22 7 34 -10 45
-62 10 -46 -35 -113 -75 -113 -32 0 -40 -24 -13 -34 11 -4 28 6 50 31 19 20
34 41 34 45 0 23 18 3 29 -32 9 -32 17 -40 35 -40 15 0 30 10 41 28 18 27 18
27 -2 9 -27 -24 -42 -6 -49 59 -5 40 -2 54 14 74 11 13 30 25 43 25 27 0 36
20 13 29 -11 4 -27 -5 -50 -29 l-33 -36 -7 25 c-9 36 -24 44 -61 34z"/>
<path d="M1467 6032 c10 -6 8 -23 -7 -77 -11 -38 -25 -72 -32 -77 -8 -5 -3 -8
15 -8 16 0 26 4 23 8 -3 5 4 38 14 73 25 81 25 89 -2 89 -15 0 -19 -3 -11 -8z"/>
<path d="M2103 6188 c-18 -5 -33 -11 -33 -14 0 -3 9 -3 19 1 22 7 34 -10 45
-62 10 -46 -35 -113 -75 -113 -32 0 -40 -24 -13 -34 11 -4 28 6 50 31 19 20
34 41 34 45 0 23 18 3 29 -32 9 -32 17 -40 35 -40 15 0 30 10 41 28 18 27 18
27 -2 9 -27 -24 -42 -6 -49 59 -5 40 -2 54 14 74 11 13 30 25 43 25 27 0 36
20 13 29 -11 4 -27 -5 -50 -29 l-33 -36 -7 25 c-9 36 -24 44 -61 34z"/>
<path d="M2296 6025 c-21 -22 -20 -28 3 -14 10 7 26 9 35 6 28 -11 17 -46 -30
-97 l-47 -50 52 0 c35 0 51 4 51 13 0 9 -11 12 -37 9 l-38 -5 47 51 c40 43 46
55 39 74 -10 28 -52 36 -75 13z"/>
<path d="M3869 3773 c-1 -5 -1 -12 0 -16 1 -5 -10 -52 -24 -104 -14 -52 -25
-103 -25 -114 0 -26 32 -24 56 4 l19 22 -22 -19 c-23 -19 -23 -19 -23 0 0 10
13 67 29 127 27 101 28 107 10 107 -11 0 -20 -3 -20 -7z"/>
<path d="M3969 3773 c-1 -5 -1 -12 0 -16 1 -5 -10 -52 -24 -104 -14 -52 -25
-103 -25 -114 0 -26 32 -24 56 4 l19 22 -22 -19 c-23 -19 -23 -19 -23 0 0 10
13 67 29 127 27 101 28 107 10 107 -11 0 -20 -3 -20 -7z"/>
<path d="M3402 3699 c-21 -19 -27 -29 -17 -29 16 0 15 -10 -11 -98 -14 -47 -3
-62 34 -47 11 5 13 9 5 12 -17 6 -16 18 2 81 11 36 21 52 33 52 11 0 13 3 6 8
-7 4 -14 17 -15 29 -4 21 -5 21 -37 -8z"/>
<path d="M2870 3677 c-31 -16 -70 -73 -70 -103 0 -53 79 -75 116 -32 l19 21
-27 -17 c-54 -35 -86 0 -62 69 20 60 66 86 77 45 7 -25 27 -26 27 -1 0 31 -38
39 -80 18z"/>
<path d="M3032 3670 c-66 -40 -82 -140 -23 -148 23 -4 23 -3 8 13 -20 20 -20
22 -6 66 23 68 80 103 94 58 9 -28 -21 -105 -48 -124 -15 -11 -17 -15 -6 -15
24 0 78 62 85 98 5 24 2 38 -11 52 -23 25 -51 25 -93 0z"/>
<path d="M3191 3683 c-18 -4 -21 -7 -11 -13 11 -7 11 -19 -3 -69 -20 -73 -21
-81 -4 -81 13 0 35 54 43 105 2 16 7 38 10 47 3 10 2 17 -3 17 -4 -1 -19 -4
-32 -6z"/>
<path d="M3262 3674 c-12 -8 -27 -25 -33 -37 -10 -18 -7 -17 14 6 25 26 47 35
47 20 0 -5 -7 -33 -15 -63 -8 -30 -15 -61 -15 -67 0 -21 35 -15 56 9 16 19 16
20 1 9 -27 -21 -30 -8 -12 53 24 81 8 106 -43 70z"/>
<path d="M3496 3683 c-15 -4 -16 -7 -6 -13 14 -8 10 -37 -16 -127 -4 -16 -2
-23 7 -23 17 0 52 90 54 138 2 32 -2 34 -39 25z"/>
<path d="M3572 3683 c-7 -2 -17 -14 -23 -25 -9 -16 -8 -19 3 -12 7 5 22 9 33
9 11 0 20 6 20 14 0 16 -14 22 -33 14z"/>
<path d="M3672 3670 c-66 -40 -82 -140 -23 -148 23 -4 23 -3 8 13 -20 20 -20
22 -6 66 23 68 80 103 94 58 9 -28 -21 -105 -48 -124 -15 -11 -17 -15 -6 -15
24 0 78 62 85 98 5 24 2 38 -11 52 -23 25 -51 25 -93 0z"/>
<path d="M4082 3670 c-66 -40 -82 -140 -23 -148 23 -4 23 -3 8 13 -20 20 -20
22 -6 66 23 68 80 103 94 58 9 -28 -21 -105 -48 -124 -15 -11 -17 -15 -6 -15
24 0 78 62 85 98 5 24 2 38 -11 52 -23 25 -51 25 -93 0z"/>
<path d="M3492 3345 c-35 -30 -55 -73 -50 -111 4 -39 49 -46 86 -12 20 18 24
19 19 5 -11 -29 21 -33 46 -6 13 13 15 17 4 9 -9 -7 -19 -11 -22 -9 -2 3 4 37
14 77 16 60 17 72 5 72 -8 0 -14 -5 -14 -12 0 -9 -3 -9 -12 0 -19 19 -44 14
-76 -13z m72 -22 c-3 -47 -40 -103 -70 -103 -27 0 -31 20 -13 67 26 70 85 95
83 36z"/>
<path d="M3641 3121 c-11 -11 -23 -32 -27 -47 -4 -14 -16 -29 -28 -34 -15 -6
-16 -9 -5 -9 15 -1 15 -9 -2 -91 -10 -50 -23 -99 -29 -110 -13 -24 -30 -26
-30 -5 0 16 -16 20 -24 6 -9 -15 22 -33 44 -26 27 9 47 49 69 142 15 66 21 78
42 83 24 6 24 6 2 12 -20 5 -21 10 -13 37 4 17 11 35 15 41 8 14 36 13 33 -1
-2 -6 3 -14 10 -16 9 -4 13 1 10 13 -5 27 -43 29 -67 5z"/>
<path d="M3416 3122 c-2 -4 -1 -14 4 -22 7 -11 12 -12 21 -3 6 6 8 16 5 22 -8
13 -23 14 -30 3z"/>
<path d="M3726 3122 c-2 -4 -1 -14 4 -22 7 -11 12 -12 21 -3 6 6 8 16 5 22 -8
13 -23 14 -30 3z"/>
<path d="M4026 3122 c-2 -4 -1 -14 4 -22 7 -11 12 -12 21 -3 6 6 8 16 5 22 -8
13 -23 14 -30 3z"/>
<path d="M4236 3122 c-2 -4 -1 -14 4 -22 7 -11 12 -12 21 -3 6 6 8 16 5 22 -8
13 -23 14 -30 3z"/>
<path d="M2992 3059 c-21 -19 -27 -29 -17 -29 16 0 15 -10 -11 -98 -14 -47 -3
-62 34 -47 11 5 13 9 5 12 -17 6 -16 18 2 81 11 36 21 52 33 52 11 0 13 3 6 8
-7 4 -14 17 -15 29 -4 21 -5 21 -37 -8z"/>
<path d="M3292 3059 c-21 -19 -27 -29 -17 -29 16 0 15 -10 -11 -98 -14 -47 -3
-62 34 -47 11 5 13 9 5 12 -17 6 -16 18 2 81 11 36 21 52 33 52 11 0 13 3 6 8
-7 4 -14 17 -15 29 -4 21 -5 21 -37 -8z"/>
<path d="M4112 3059 c-21 -19 -27 -29 -17 -29 16 0 15 -10 -11 -98 -14 -47 -3
-62 34 -47 11 5 13 9 5 12 -17 6 -16 18 2 81 11 36 21 52 33 52 11 0 13 3 6 8
-7 4 -14 17 -15 29 -4 21 -5 21 -37 -8z"/>
<path d="M2846 3034 c-22 -21 -20 -33 10 -78 22 -32 25 -42 15 -58 -18 -28 6
-22 25 7 16 24 15 27 -10 66 -15 22 -25 47 -22 55 8 21 37 17 43 -6 6 -23 23
-17 23 8 0 23 -63 28 -84 6z"/>
<path d="M3112 3025 c-35 -30 -55 -73 -50 -111 4 -39 49 -46 86 -12 20 18 24
19 19 5 -11 -29 21 -33 46 -6 13 13 15 17 4 9 -9 -7 -19 -11 -22 -9 -2 3 4 37
14 77 16 60 17 72 5 72 -8 0 -14 -5 -14 -12 0 -9 -3 -9 -12 0 -19 19 -44 14
-76 -13z m72 -22 c-3 -47 -40 -103 -70 -103 -27 0 -31 20 -13 67 26 70 85 95
83 36z"/>
<path d="M3396 3043 c-13 -4 -15 -7 -7 -13 10 -5 9 -19 -3 -60 -9 -30 -16 -62
-16 -72 0 -25 33 -23 56 5 l19 22 -22 -19 c-29 -24 -29 -13 -4 77 20 69 19 71
-23 60z"/>
<path d="M3706 3043 c-13 -4 -15 -7 -7 -13 10 -5 9 -19 -3 -60 -9 -30 -16 -62
-16 -72 0 -25 33 -23 56 5 l19 22 -22 -19 c-29 -24 -29 -13 -4 77 20 69 19 71
-23 60z"/>
<path d="M3801 3043 c-18 -4 -21 -7 -11 -13 11 -7 11 -19 -3 -69 -20 -73 -21
-81 -4 -81 13 0 35 54 43 105 2 16 7 38 10 47 3 10 2 17 -3 17 -4 -1 -19 -4
-32 -6z"/>
<path d="M3872 3034 c-12 -8 -27 -25 -33 -37 -10 -18 -7 -17 14 6 25 26 47 35
47 20 0 -5 -7 -33 -15 -63 -8 -30 -15 -61 -15 -67 0 -21 35 -15 56 9 16 19 16
20 1 9 -27 -21 -30 -8 -12 53 24 81 8 106 -43 70z"/>
<path d="M4006 3043 c-13 -4 -15 -7 -7 -13 10 -5 9 -19 -3 -60 -9 -30 -16 -62
-16 -72 0 -25 33 -23 56 5 l19 22 -22 -19 c-29 -24 -29 -13 -4 77 20 69 19 71
-23 60z"/>
<path d="M4216 3043 c-13 -4 -15 -7 -7 -13 10 -5 9 -19 -3 -60 -9 -30 -16 -62
-16 -72 0 -25 33 -23 56 5 l19 22 -22 -19 c-29 -24 -29 -13 -4 77 20 69 19 71
-23 60z"/>
<path d="M2800 2905 c0 -18 5 -25 20 -25 20 0 20 1 4 25 -9 14 -18 25 -20 25
-2 0 -4 -11 -4 -25z"/>
<path d="M3587 6345 l-55 -165 158 0 159 0 -159 -265 -159 -265 1289 0 1290 0
0 430 0 430 -1234 0 -1234 0 -55 -165z m803 -265 l0 -420 -421 0 -421 0 14 23
c42 65 298 496 298 501 0 3 -70 6 -155 6 -85 0 -155 4 -155 8 0 6 78 244 95
290 3 9 88 12 375 12 l370 0 0 -420z m850 0 l0 -420 -420 0 -420 0 0 420 0
420 420 0 420 0 0 -420z m850 0 l0 -420 -420 0 -420 0 0 420 0 420 420 0 420
0 0 -420z"/>
<path d="M4673 6188 c-18 -5 -33 -11 -33 -14 0 -3 9 -3 19 1 22 7 34 -10 45
-62 10 -46 -35 -113 -75 -113 -32 0 -40 -24 -13 -34 11 -4 28 6 50 31 19 20
34 41 34 45 0 23 18 3 29 -32 9 -32 17 -40 35 -40 15 0 30 10 41 28 18 27 18
27 -2 9 -27 -24 -42 -6 -49 59 -5 40 -2 54 14 74 11 13 30 25 43 25 27 0 36
20 13 29 -11 4 -27 -5 -50 -29 l-33 -36 -7 25 c-9 36 -24 44 -61 34z"/>
<path d="M4844 5971 c3 -5 -1 -29 -8 -55 -17 -56 -5 -60 21 -8 20 42 19 72 -3
72 -8 0 -13 -4 -10 -9z"/>
<path d="M4894 5968 c-5 -7 -3 -8 6 -3 10 6 11 0 6 -31 -4 -21 -8 -43 -9 -48
-1 -5 3 -10 8 -12 6 -2 11 4 12 13 1 10 4 35 8 56 6 30 5 37 -8 37 -9 0 -19
-5 -23 -12z"/>
<path d="M5746 6245 c-3 -8 -17 -15 -31 -15 -16 0 -39 -12 -57 -30 -36 -37
-33 -68 13 -116 l30 -31 -16 -71 c-11 -46 -22 -72 -30 -72 -18 0 -45 39 -45
65 0 16 -2 17 -10 5 -21 -32 -11 -60 26 -76 28 -12 35 -20 31 -35 -3 -10 -2
-21 3 -24 4 -3 11 6 14 20 4 16 13 25 27 25 28 0 77 27 89 49 21 39 12 83 -24
121 l-35 35 13 54 c14 64 31 75 49 32 14 -34 27 -31 27 4 0 15 -9 26 -29 35
-19 7 -28 17 -24 26 3 8 1 14 -5 14 -5 0 -12 -7 -16 -15z m-10 -51 c-4 -15
-10 -39 -13 -55 -7 -35 -17 -37 -37 -7 -21 30 -20 44 4 68 30 30 54 27 46 -6z
m24 -218 c0 -39 -9 -52 -43 -65 -23 -9 -27 -8 -27 7 0 15 14 77 26 111 8 25
44 -18 44 -53z"/>
<path d="M7772 6328 c1 -7 -1 -30 -5 -51 -7 -32 -11 -36 -30 -32 -52 13 -121
-65 -115 -128 2 -27 8 -33 31 -35 17 -2 37 4 48 14 17 16 19 16 19 1 0 -24 34
-21 56 5 16 19 16 20 1 9 -9 -8 -20 -11 -23 -8 -3 3 8 54 25 114 17 60 31 112
31 116 0 4 -9 7 -20 7 -12 0 -20 -6 -18 -12z m-29 -102 c7 -18 -7 -71 -28
-102 -20 -30 -65 -33 -65 -5 0 30 19 73 42 99 25 25 43 28 51 8z"/>
<path d="M8409 6333 c-1 -5 -1 -12 0 -16 1 -5 -10 -52 -24 -104 -14 -52 -25
-103 -25 -114 0 -26 32 -24 56 4 l19 22 -22 -19 c-23 -19 -23 -19 -23 0 0 10
13 67 29 127 27 101 28 107 10 107 -11 0 -20 -3 -20 -7z"/>
<path d="M8809 6333 c-1 -5 -1 -12 0 -16 1 -5 -10 -52 -24 -104 -14 -52 -25
-103 -25 -114 0 -26 32 -24 56 4 l19 22 -22 -19 c-23 -19 -23 -19 -23 0 0 10
13 67 29 127 27 101 28 107 10 107 -11 0 -20 -3 -20 -7z"/>
<path d="M7866 6322 c-2 -4 -1 -14 4 -22 7 -11 12 -12 21 -3 6 6 8 16 5 22 -8
13 -23 14 -30 3z"/>
<path d="M7112 6259 c-21 -19 -27 -29 -17 -29 16 0 15 -10 -11 -98 -14 -47 -3
-62 34 -47 11 5 13 9 5 12 -17 6 -16 18 2 81 11 36 21 52 33 52 11 0 13 3 6 8
-7 4 -14 17 -15 29 -4 21 -5 21 -37 -8z"/>
<path d="M9062 6259 c-21 -19 -27 -29 -17 -29 16 0 15 -10 -11 -98 -14 -47 -3
-62 34 -47 11 5 13 9 5 12 -17 6 -16 18 2 81 11 36 21 52 33 52 11 0 13 3 6 8
-7 4 -14 17 -15 29 -4 21 -5 21 -37 -8z"/>
<path d="M9172 6259 c-21 -19 -27 -29 -17 -29 16 0 15 -10 -11 -98 -14 -47 -3
-62 34 -47 11 5 13 9 5 12 -17 6 -16 18 2 81 11 36 21 52 33 52 11 0 13 3 6 8
-7 4 -14 17 -15 29 -4 21 -5 21 -37 -8z"/>
<path d="M6571 6243 c-18 -4 -21 -7 -11 -13 11 -7 11 -19 -3 -69 -20 -73 -21
-81 -4 -81 13 0 35 54 43 105 2 16 7 38 10 47 3 10 2 17 -3 17 -4 -1 -19 -4
-32 -6z"/>
<path d="M6642 6234 c-12 -8 -27 -25 -33 -37 -10 -18 -7 -17 14 6 25 26 47 35
47 20 0 -5 -7 -33 -15 -63 -8 -30 -15 -61 -15 -67 0 -21 35 -15 56 9 16 19 16
20 1 9 -27 -21 -30 -8 -12 53 24 81 8 106 -43 70z"/>
<path d="M6782 6225 c-35 -30 -55 -73 -50 -111 4 -39 49 -46 86 -12 20 18 24
19 19 5 -11 -29 21 -33 46 -6 13 13 15 17 4 9 -9 -7 -19 -11 -22 -9 -2 3 4 37
14 77 16 60 17 72 5 72 -8 0 -14 -5 -14 -12 0 -9 -3 -9 -12 0 -19 19 -44 14
-76 -13z m72 -22 c-3 -47 -40 -103 -70 -103 -27 0 -31 20 -13 67 26 70 85 95
83 36z"/>
<path d="M6966 6234 c-22 -21 -20 -33 10 -78 22 -32 25 -42 15 -58 -18 -28 6
-22 25 7 16 24 15 27 -10 66 -15 22 -25 47 -22 55 8 21 37 17 43 -6 6 -23 23
-17 23 8 0 23 -63 28 -84 6z"/>
<path d="M7216 6243 c-15 -4 -16 -7 -6 -13 14 -8 10 -37 -16 -127 -4 -16 -2
-23 7 -23 17 0 52 90 54 138 2 32 -2 34 -39 25z"/>
<path d="M7292 6243 c-7 -2 -17 -14 -23 -25 -9 -16 -8 -19 3 -12 7 5 22 9 33
9 11 0 20 6 20 14 0 16 -14 22 -33 14z"/>
<path d="M7392 6230 c-66 -40 -82 -140 -23 -148 23 -4 23 -3 8 13 -20 20 -20
22 -6 66 23 68 80 103 94 58 9 -28 -21 -105 -48 -124 -15 -11 -17 -15 -6 -15
24 0 78 62 85 98 5 24 2 38 -11 52 -23 25 -51 25 -93 0z"/>
<path d="M7846 6243 c-13 -4 -15 -7 -7 -13 10 -5 9 -19 -3 -60 -9 -30 -16 -62
-16 -72 0 -25 33 -23 56 5 l19 22 -22 -19 c-29 -24 -29 -13 -4 77 20 69 19 71
-23 60z"/>
<path d="M8056 6234 c-22 -21 -20 -33 10 -78 22 -32 25 -42 15 -58 -18 -28 6
-22 25 7 16 24 15 27 -10 66 -15 22 -25 47 -22 55 8 21 37 17 43 -6 6 -23 23
-17 23 8 0 23 -63 28 -84 6z"/>
<path d="M8222 6230 c-66 -40 -82 -140 -23 -148 23 -4 23 -3 8 13 -20 20 -20
22 -6 66 23 68 80 103 94 58 9 -28 -21 -105 -48 -124 -15 -11 -17 -15 -6 -15
24 0 78 62 85 98 5 24 2 38 -11 52 -23 25 -51 25 -93 0z"/>
<path d="M8512 6225 c-35 -30 -55 -73 -50 -111 4 -39 49 -46 86 -12 20 18 24
19 19 5 -11 -29 21 -33 46 -6 13 13 15 17 4 9 -9 -7 -19 -11 -22 -9 -2 3 4 37
14 77 16 60 17 72 5 72 -8 0 -14 -5 -14 -12 0 -9 -3 -9 -12 0 -19 19 -44 14
-76 -13z m72 -22 c-3 -47 -40 -103 -70 -103 -27 0 -31 20 -13 67 26 70 85 95
83 36z"/>
<path d="M8913 6229 c-41 -26 -69 -84 -57 -118 13 -35 70 -41 105 -11 l24 21
-32 -15 c-38 -19 -63 -12 -63 19 0 17 10 26 45 40 46 17 71 46 61 71 -8 20
-46 17 -83 -7z m57 -9 c0 -12 -13 -28 -32 -40 -43 -26 -51 -25 -37 3 28 54 69
76 69 37z"/>
<path d="M9277 6243 c-9 -2 -15 -9 -11 -14 3 -6 0 -39 -7 -74 -7 -36 -10 -68
-6 -71 13 -13 53 7 75 38 l23 33 -7 -37 c-5 -33 -4 -38 13 -38 11 0 28 10 39
22 16 19 16 20 1 9 -9 -8 -20 -12 -22 -9 -3 2 4 34 14 71 12 42 16 69 10 73
-13 8 -12 9 -43 -57 -26 -56 -61 -97 -72 -86 -4 3 1 35 10 71 21 86 23 79 -17
69z"/>
<path d="M9466 6243 c-15 -4 -16 -7 -6 -13 14 -8 10 -37 -16 -127 -4 -16 -2
-23 7 -23 17 0 52 90 54 138 2 32 -2 34 -39 25z"/>
<path d="M9542 6243 c-7 -2 -17 -14 -23 -25 -9 -16 -8 -19 3 -12 7 5 22 9 33
9 11 0 20 6 20 14 0 16 -14 22 -33 14z"/>
<path d="M9632 6225 c-35 -30 -55 -73 -50 -111 4 -39 49 -46 86 -12 20 18 24
19 19 5 -11 -29 21 -33 46 -6 13 13 15 17 4 9 -9 -7 -19 -11 -22 -9 -2 3 4 37
14 77 16 60 17 72 5 72 -8 0 -14 -5 -14 -12 0 -9 -3 -9 -12 0 -19 19 -44 14
-76 -13z m72 -22 c-3 -47 -40 -103 -70 -103 -27 0 -31 20 -13 67 26 70 85 95
83 36z"/>
<path d="M6920 6105 c0 -18 5 -25 20 -25 20 0 20 1 4 25 -9 14 -18 25 -20 25
-2 0 -4 -11 -4 -25z"/>
<path d="M8010 6105 c0 -18 5 -25 20 -25 20 0 20 1 4 25 -9 14 -18 25 -20 25
-2 0 -4 -11 -4 -25z"/>
<path d="M5252 4618 c1 -7 -1 -30 -5 -51 -7 -32 -11 -36 -30 -32 -52 13 -121
-65 -115 -128 2 -27 8 -33 31 -35 17 -2 37 4 48 14 17 16 19 16 19 1 0 -24 34
-21 56 5 16 19 16 20 1 9 -9 -8 -20 -11 -23 -8 -3 3 8 54 25 114 17 60 31 112
31 116 0 4 -9 7 -20 7 -12 0 -20 -6 -18 -12z m-29 -102 c7 -18 -7 -71 -28
-102 -20 -30 -65 -33 -65 -5 0 30 19 73 42 99 25 25 43 28 51 8z"/>
<path d="M5889 4623 c-1 -5 -1 -12 0 -16 1 -5 -10 -52 -24 -104 -14 -52 -25
-103 -25 -114 0 -26 32 -24 56 4 l19 22 -22 -19 c-23 -19 -23 -19 -23 0 0 10
13 67 29 127 27 101 28 107 10 107 -11 0 -20 -3 -20 -7z"/>
<path d="M6289 4623 c-1 -5 -1 -12 0 -16 1 -5 -10 -52 -24 -104 -14 -52 -25
-103 -25 -114 0 -26 32 -24 56 4 l19 22 -22 -19 c-23 -19 -23 -19 -23 0 0 10
13 67 29 127 27 101 28 107 10 107 -11 0 -20 -3 -20 -7z"/>
<path d="M4566 4612 c-2 -4 -1 -14 4 -22 7 -11 12 -12 21 -3 6 6 8 16 5 22 -8
13 -23 14 -30 3z"/>
<path d="M5346 4612 c-2 -4 -1 -14 4 -22 7 -11 12 -12 21 -3 6 6 8 16 5 22 -8
13 -23 14 -30 3z"/>
<path d="M4022 4549 c-21 -19 -27 -29 -17 -29 16 0 15 -10 -11 -98 -14 -47 -3
-62 34 -47 11 5 13 9 5 12 -17 6 -16 18 2 81 11 36 21 52 33 52 11 0 13 3 6 8
-7 4 -14 17 -15 29 -4 21 -5 21 -37 -8z"/>
<path d="M4442 4549 c-21 -19 -27 -29 -17 -29 16 0 15 -10 -11 -98 -14 -47 -3
-62 34 -47 11 5 13 9 5 12 -17 6 -16 18 2 81 11 36 21 52 33 52 11 0 13 3 6 8
-7 4 -14 17 -15 29 -4 21 -5 21 -37 -8z"/>
<path d="M6552 4549 c-21 -19 -27 -29 -17 -29 16 0 15 -10 -11 -98 -14 -47 -3
-62 34 -47 11 5 13 9 5 12 -17 6 -16 18 2 81 11 36 21 52 33 52 11 0 13 3 6 8
-7 4 -14 17 -15 29 -4 21 -5 21 -37 -8z"/>
<path d="M6652 4549 c-21 -19 -27 -29 -17 -29 16 0 15 -10 -11 -98 -14 -47 -3
-62 34 -47 11 5 13 9 5 12 -17 6 -16 18 2 81 11 36 21 52 33 52 11 0 13 3 6 8
-7 4 -14 17 -15 29 -4 21 -5 21 -37 -8z"/>
<path d="M4143 4519 c-41 -26 -69 -84 -57 -118 13 -35 70 -41 105 -11 l24 21
-32 -15 c-38 -19 -63 -12 -63 19 0 17 10 26 45 40 46 17 71 46 61 71 -8 20
-46 17 -83 -7z m57 -9 c0 -12 -13 -28 -32 -40 -43 -26 -51 -25 -37 3 28 54 69
76 69 37z"/>
<path d="M4296 4524 c-22 -21 -20 -33 10 -78 22 -32 25 -42 15 -58 -18 -28 6
-22 25 7 16 24 15 27 -10 66 -15 22 -25 47 -22 55 8 21 37 17 43 -6 6 -23 23
-17 23 8 0 23 -63 28 -84 6z"/>
<path d="M4546 4533 c-13 -4 -15 -7 -7 -13 10 -5 9 -19 -3 -60 -9 -30 -16 -62
-16 -72 0 -25 33 -23 56 5 l19 22 -22 -19 c-29 -24 -29 -13 -4 77 20 69 19 71
-23 60z"/>
<path d="M4651 4533 c-18 -4 -21 -7 -11 -13 11 -7 11 -19 -3 -69 -20 -73 -21
-81 -4 -81 13 0 35 54 43 105 2 16 7 38 10 47 3 10 2 17 -3 17 -4 -1 -19 -4
-32 -6z"/>
<path d="M4722 4524 c-12 -8 -27 -25 -33 -37 -10 -18 -7 -17 14 6 25 26 47 35
47 20 0 -5 -7 -33 -15 -63 -8 -30 -15 -61 -15 -67 0 -21 35 -15 56 9 16 19 16
20 1 9 -27 -21 -30 -8 -12 53 24 81 8 106 -43 70z"/>
<path d="M4862 4515 c-35 -30 -55 -73 -50 -111 4 -39 49 -46 86 -12 20 18 24
19 19 5 -11 -29 21 -33 46 -6 13 13 15 17 4 9 -9 -7 -19 -11 -22 -9 -2 3 4 37
14 77 16 60 17 72 5 72 -8 0 -14 -5 -14 -12 0 -9 -3 -9 -12 0 -19 19 -44 14
-76 -13z m72 -22 c-3 -47 -40 -103 -70 -103 -27 0 -31 20 -13 67 26 70 85 95
83 36z"/>
<path d="M5326 4533 c-13 -4 -15 -7 -7 -13 10 -5 9 -19 -3 -60 -9 -30 -16 -62
-16 -72 0 -25 33 -23 56 5 l19 22 -22 -19 c-29 -24 -29 -13 -4 77 20 69 19 71
-23 60z"/>
<path d="M5536 4524 c-22 -21 -20 -33 10 -78 22 -32 25 -42 15 -58 -18 -28 6
-22 25 7 16 24 15 27 -10 66 -15 22 -25 47 -22 55 8 21 37 17 43 -6 6 -23 23
-17 23 8 0 23 -63 28 -84 6z"/>
<path d="M5702 4520 c-66 -40 -82 -140 -23 -148 23 -4 23 -3 8 13 -20 20 -20
22 -6 66 23 68 80 103 94 58 9 -28 -21 -105 -48 -124 -15 -11 -17 -15 -6 -15
24 0 78 62 85 98 5 24 2 38 -11 52 -23 25 -51 25 -93 0z"/>
<path d="M5992 4515 c-35 -30 -55 -73 -50 -111 4 -39 49 -46 86 -12 20 18 24
19 19 5 -11 -29 21 -33 46 -6 13 13 15 17 4 9 -9 -7 -19 -11 -22 -9 -2 3 4 37
14 77 16 60 17 72 5 72 -8 0 -14 -5 -14 -12 0 -9 -3 -9 -12 0 -19 19 -44 14
-76 -13z m72 -22 c-3 -47 -40 -103 -70 -103 -27 0 -31 20 -13 67 26 70 85 95
83 36z"/>
<path d="M6393 4519 c-41 -26 -69 -84 -57 -118 13 -35 70 -41 105 -11 l24 21
-32 -15 c-38 -19 -63 -12 -63 19 0 17 10 26 45 40 46 17 71 46 61 71 -8 20
-46 17 -83 -7z m57 -9 c0 -12 -13 -28 -32 -40 -43 -26 -51 -25 -37 3 28 54 69
76 69 37z"/>
<path d="M6757 4533 c-9 -2 -15 -9 -11 -14 3 -6 0 -39 -7 -74 -7 -36 -10 -68
-6 -71 13 -13 53 7 75 38 l23 33 -7 -37 c-5 -33 -4 -38 13 -38 11 0 28 10 39
22 16 19 16 20 1 9 -9 -8 -20 -12 -22 -9 -3 2 4 34 14 71 12 42 16 69 10 73
-13 8 -12 9 -43 -57 -26 -56 -61 -97 -72 -86 -4 3 1 35 10 71 21 86 23 79 -17
69z"/>
<path d="M6946 4533 c-15 -4 -16 -7 -6 -13 14 -8 10 -37 -16 -127 -4 -16 -2
-23 7 -23 17 0 52 90 54 138 2 32 -2 34 -39 25z"/>
<path d="M7022 4533 c-7 -2 -17 -14 -23 -25 -9 -16 -8 -19 3 -12 7 5 22 9 33
9 11 0 20 6 20 14 0 16 -14 22 -33 14z"/>
<path d="M7112 4515 c-35 -30 -55 -73 -50 -111 4 -39 49 -46 86 -12 20 18 24
19 19 5 -11 -29 21 -33 46 -6 13 13 15 17 4 9 -9 -7 -19 -11 -22 -9 -2 3 4 37
14 77 16 60 17 72 5 72 -8 0 -14 -5 -14 -12 0 -9 -3 -9 -12 0 -19 19 -44 14
-76 -13z m72 -22 c-3 -47 -40 -103 -70 -103 -27 0 -31 20 -13 67 26 70 85 95
83 36z"/>
<path d="M4250 4395 c0 -18 5 -25 20 -25 20 0 20 1 4 25 -9 14 -18 25 -20 25
-2 0 -4 -11 -4 -25z"/>
<path d="M5490 4395 c0 -18 5 -25 20 -25 20 0 20 1 4 25 -9 14 -18 25 -20 25
-2 0 -4 -11 -4 -25z"/>
<path d="M4443 962 l-801 -2 -55 -165 -55 -165 158 0 159 0 -159 -265 -159
-265 2142 2 c1178 2 1758 4 1290 5 l-853 3 0 420 0 420 853 2 c805 3 781 3
-433 8 -707 3 -1646 4 -2087 2z m-53 -432 l0 -420 -421 0 -421 0 14 22 c42 66
298 497 298 502 0 3 -70 6 -155 6 -85 0 -155 4 -155 8 0 6 78 244 95 290 3 9
88 12 375 12 l370 0 0 -420z m850 0 l0 -420 -420 0 -420 0 0 420 0 420 420 0
420 0 0 -420z m850 0 l0 -420 -420 0 -420 0 0 420 0 420 420 0 420 0 0 -420z"/>
<path d="M9052 778 c1 -7 -1 -30 -5 -51 -7 -32 -11 -36 -30 -32 -52 13 -121
-65 -115 -128 2 -27 8 -33 31 -35 17 -2 37 4 48 14 17 16 19 16 19 1 0 -24 34
-21 56 5 16 19 16 20 1 9 -9 -8 -20 -11 -23 -8 -3 3 8 54 25 114 17 60 31 112
31 116 0 4 -9 7 -20 7 -12 0 -20 -6 -18 -12z m-29 -102 c7 -18 -7 -71 -28
-102 -20 -30 -65 -33 -65 -5 0 30 19 73 42 99 25 25 43 28 51 8z"/>
<path d="M9349 783 c-1 -5 -1 -12 0 -16 1 -5 -10 -52 -24 -104 -14 -52 -25
-103 -25 -114 0 -26 32 -24 56 4 l19 22 -22 -19 c-23 -19 -23 -19 -23 0 0 10
13 67 29 127 27 101 28 107 10 107 -11 0 -20 -3 -20 -7z"/>
<path d="M9146 772 c-2 -4 -1 -14 4 -22 7 -11 12 -12 21 -3 6 6 8 16 5 22 -8
13 -23 14 -30 3z"/>
<path d="M8392 709 c-21 -19 -27 -29 -17 -29 16 0 15 -10 -11 -98 -14 -47 -3
-62 34 -47 11 5 13 9 5 12 -17 6 -16 18 2 81 11 36 21 52 33 52 11 0 13 3 6 8
-7 4 -14 17 -15 29 -4 21 -5 21 -37 -8z"/>
<path d="M7851 693 c-18 -4 -21 -7 -11 -13 11 -7 11 -19 -3 -69 -20 -73 -21
-81 -4 -81 13 0 35 54 43 105 2 16 7 38 10 47 3 10 2 17 -3 17 -4 -1 -19 -4
-32 -6z"/>
<path d="M7922 684 c-12 -8 -27 -25 -33 -37 -10 -18 -7 -17 14 6 25 26 47 35
47 20 0 -5 -7 -33 -15 -63 -8 -30 -15 -61 -15 -67 0 -21 35 -15 56 9 16 19 16
20 1 9 -27 -21 -30 -8 -12 53 24 81 8 106 -43 70z"/>
<path d="M8062 675 c-35 -30 -55 -73 -50 -111 4 -39 49 -46 86 -12 20 18 24
19 19 5 -11 -29 21 -33 46 -6 13 13 15 17 4 9 -9 -7 -19 -11 -22 -9 -2 3 4 37
14 77 16 60 17 72 5 72 -8 0 -14 -5 -14 -12 0 -9 -3 -9 -12 0 -19 19 -44 14
-76 -13z m72 -22 c-3 -47 -40 -103 -70 -103 -27 0 -31 20 -13 67 26 70 85 95
83 36z"/>
<path d="M8246 684 c-22 -21 -20 -33 10 -78 22 -32 25 -42 15 -58 -18 -28 6
-22 25 7 16 24 15 27 -10 66 -15 22 -25 47 -22 55 8 21 37 17 43 -6 6 -23 23
-17 23 8 0 23 -63 28 -84 6z"/>
<path d="M8496 693 c-15 -4 -16 -7 -6 -13 14 -8 10 -37 -16 -127 -4 -16 -2
-23 7 -23 17 0 52 90 54 138 2 32 -2 34 -39 25z"/>
<path d="M8572 693 c-7 -2 -17 -14 -23 -25 -9 -16 -8 -19 3 -12 7 5 22 9 33 9
11 0 20 6 20 14 0 16 -14 22 -33 14z"/>
<path d="M8672 680 c-66 -40 -82 -140 -23 -148 23 -4 23 -3 8 13 -20 20 -20
22 -6 66 23 68 80 103 94 58 9 -28 -21 -105 -48 -124 -15 -11 -17 -15 -6 -15
24 0 78 62 85 98 5 24 2 38 -11 52 -23 25 -51 25 -93 0z"/>
<path d="M9126 693 c-13 -4 -15 -7 -7 -13 10 -5 9 -19 -3 -60 -9 -30 -16 -62
-16 -72 0 -25 33 -23 56 5 l19 22 -22 -19 c-29 -24 -29 -13 -4 77 20 69 19 71
-23 60z"/>
<path d="M9452 675 c-35 -30 -55 -73 -50 -111 4 -39 49 -46 86 -12 20 18 24
19 19 5 -11 -29 21 -33 46 -6 13 13 15 17 4 9 -9 -7 -19 -11 -22 -9 -2 3 4 37
14 77 16 60 17 72 5 72 -8 0 -14 -5 -14 -12 0 -9 -3 -9 -12 0 -19 19 -44 14
-76 -13z m72 -22 c-3 -47 -40 -103 -70 -103 -27 0 -31 20 -13 67 26 70 85 95
83 36z"/>
<path d="M9611 691 c-9 -6 -10 -10 -2 -12 7 -3 14 -36 18 -77 3 -39 9 -72 13
-72 13 0 70 70 87 105 16 34 12 65 -7 65 -8 0 -9 -11 -5 -31 5 -24 1 -39 -21
-71 l-29 -41 -8 49 c-15 99 -17 103 -46 85z"/>
<path d="M9822 680 c-66 -40 -82 -140 -23 -148 23 -4 23 -3 8 13 -20 20 -20
22 -6 66 23 68 80 103 94 58 9 -28 -21 -105 -48 -124 -15 -11 -17 -15 -6 -15
24 0 78 62 85 98 5 24 2 38 -11 52 -23 25 -51 25 -93 0z"/>
<path d="M9986 693 c-15 -4 -16 -7 -6 -13 14 -8 10 -37 -16 -127 -4 -16 -2
-23 7 -23 17 0 52 90 54 138 2 32 -2 34 -39 25z"/>
<path d="M10062 693 c-7 -2 -17 -14 -23 -25 -9 -16 -8 -19 3 -12 7 5 22 9 33
9 11 0 20 6 20 14 0 16 -14 22 -33 14z"/>
<path d="M10162 680 c-66 -40 -82 -140 -23 -148 23 -4 23 -3 8 13 -20 20 -20
22 -6 66 23 68 80 103 94 58 9 -28 -21 -105 -48 -124 -15 -11 -17 -15 -6 -15
24 0 78 62 85 98 5 24 2 38 -11 52 -23 25 -51 25 -93 0z"/>
<path d="M8200 555 c0 -18 5 -25 20 -25 20 0 20 1 4 25 -9 14 -18 25 -20 25
-2 0 -4 -11 -4 -25z"/>
<path d="M6547 564 c-14 -15 -6 -34 14 -34 14 0 19 5 17 17 -3 18 -20 27 -31
17z"/>
<path d="M6737 564 c-14 -15 -6 -34 14 -34 14 0 19 5 17 17 -3 18 -20 27 -31
17z"/>
<path d="M6927 564 c-14 -15 -6 -34 14 -34 14 0 19 5 17 17 -3 18 -20 27 -31
17z"/>
<path d="M7117 564 c-14 -15 -6 -34 14 -34 14 0 19 5 17 17 -3 18 -20 27 -31
17z"/>
<path d="M7317 564 c-14 -15 -6 -34 14 -34 14 0 19 5 17 17 -3 18 -20 27 -31
17z"/>
<path d="M7507 564 c-14 -15 -6 -34 14 -34 14 0 19 5 17 17 -3 18 -20 27 -31
17z"/>
</g>
</svg>
